<svg xmlns="http://www.w3.org/2000/svg" viewBox="0 0 1024 1024" role="img" aria-labelledby="title desc">
  <title id="title">MDE App Icon - Command Sheet</title>
  <desc id="desc">Mineral teal command-sheet app icon for a Markdown editor with AI and search actions.</desc>
  <defs>
    <linearGradient id="bg" x1="150" y1="80" x2="874" y2="944" gradientUnits="userSpaceOnUse">
      <stop offset="0" stop-color="#26312a"/>
      <stop offset="0.56" stop-color="#101511"/>
      <stop offset="1" stop-color="#0b100c"/>
    </linearGradient>
    <linearGradient id="card" x1="302" y1="152" x2="722" y2="866" gradientUnits="userSpaceOnUse">
      <stop offset="0" stop-color="#f5f7f1"/>
      <stop offset="1" stop-color="#dce7e3"/>
    </linearGradient>
    <linearGradient id="mark" x1="352" y1="326" x2="734" y2="704" gradientUnits="userSpaceOnUse">
      <stop offset="0" stop-color="#8fbf9b"/>
      <stop offset="1" stop-color="#d8bf6a"/>
    </linearGradient>
    <filter id="glow" x="-25%" y="-25%" width="150%" height="150%" color-interpolation-filters="sRGB">
      <feDropShadow dx="0" dy="34" stdDeviation="32" flood-color="#000000" flood-opacity="0.42"/>
      <feDropShadow dx="0" dy="0" stdDeviation="18" flood-color="#8fbf9b" flood-opacity="0.20"/>
    </filter>
  </defs>
  <rect x="64" y="64" width="896" height="896" rx="206" fill="url(#bg)"/>
  <g opacity="0.36">
    <path d="M178 270h172" stroke="#8fbf9b" stroke-width="24" stroke-linecap="round"/>
    <path d="M168 754h238" stroke="#d8bf6a" stroke-width="18" stroke-linecap="round"/>
    <path d="M690 214h146" stroke="#8fbf9b" stroke-width="20" stroke-linecap="round"/>
    <path d="M720 804h126" stroke="#d8bf6a" stroke-width="18" stroke-linecap="round"/>
  </g>
  <g filter="url(#glow)">
    <path d="M276 214h350l122 122v474H276z" fill="url(#card)"/>
    <path d="M626 214v122h122z" fill="#c5d4cb"/>
    <path d="M626 214v122h122" fill="none" stroke="#9ab0a2" stroke-width="8" stroke-linejoin="round"/>
    <path d="M358 366h118" stroke="#3f704f" stroke-width="28" stroke-linecap="round"/>
    <path d="M358 448h258" stroke="#9ab0a2" stroke-width="24" stroke-linecap="round"/>
    <path d="M358 512h202" stroke="#9ab0a2" stroke-width="24" stroke-linecap="round"/>
    <path d="M372 714V594l80 102 80-102v120" fill="none" stroke="#101511" stroke-width="46" stroke-linecap="round" stroke-linejoin="round"/>
    <path d="M628 594l70 60-70 60" fill="none" stroke="url(#mark)" stroke-width="44" stroke-linecap="round" stroke-linejoin="round"/>
  </g>
  <rect x="64" y="64" width="896" height="896" rx="206" fill="none" stroke="#46584f" stroke-width="18" opacity="0.70"/>
</svg>
